<?xml version="1.0" standalone="no"?>
<!DOCTYPE svg PUBLIC "-//W3C//DTD SVG 20010904//EN"
 "http://www.w3.org/TR/2001/REC-SVG-20010904/DTD/svg10.dtd">
<svg version="1.0" xmlns="http://www.w3.org/2000/svg"
 width="387.000000pt" height="202.000000pt" viewBox="0 0 387.000000 202.000000"
 preserveAspectRatio="xMidYMid meet">

<g transform="translate(0.000000,202.000000) scale(0.100000,-0.100000)"
fill="#000000" stroke="none">
<path d="M1320 1989 c-67 -27 -94 -91 -65 -152 16 -35 65 -67 100 -67 41 0 84
32 100 74 15 39 15 47 2 79 -24 56 -87 87 -137 66z"/>
<path d="M2440 1982 c-20 -11 -43 -35 -54 -56 -17 -35 -17 -40 -2 -80 13 -34
25 -47 56 -61 47 -21 84 -14 122 22 89 85 -15 232 -122 175z"/>
<path d="M1814 1598 c-10 -15 50 -65 88 -74 40 -8 122 33 126 64 4 28 -12 28
-66 0 l-42 -23 -40 23 c-44 25 -56 27 -66 10z"/>
<path d="M2303 1448 c-6 -7 -16 -29 -22 -50 -18 -56 -103 -169 -154 -206 -68
-49 -121 -65 -213 -65 -70 0 -91 4 -145 30 -82 38 -150 108 -196 201 -41 82
-45 86 -73 77 -28 -9 -25 -32 16 -115 46 -91 129 -177 214 -221 63 -33 68 -34
185 -34 116 0 123 1 187 33 87 43 175 136 223 237 20 41 35 85 33 97 -3 26
-39 36 -55 16z"/>
<path d="M20 576 l0 -546 238 0 c273 0 335 10 442 66 118 62 209 181 245 321
19 73 19 230 0 312 -43 181 -184 325 -365 371 -25 7 -158 14 -302 17 l-258 5
0 -546z m526 399 c144 -43 230 -154 255 -332 20 -141 -19 -288 -100 -375 -82
-90 -198 -122 -416 -116 l-110 3 -3 418 -2 417 163 0 c114 0 178 -4 213 -15z"/>
<path d="M1323 791 c-136 -47 -210 -143 -234 -303 -21 -141 19 -286 100 -367
53 -53 105 -78 190 -93 80 -14 186 -1 244 28 123 63 189 189 189 359 -1 200
-87 333 -246 380 -67 20 -179 19 -243 -4z m248 -126 c140 -92 128 -441 -17
-510 -128 -60 -270 -2 -308 126 -20 67 -20 201 0 268 18 61 75 125 126 140 58
18 153 7 199 -24z"/>
<path d="M3064 791 c-22 -10 -56 -32 -76 -50 -43 -38 -48 -38 -48 -5 0 49 -16
64 -70 64 l-50 0 0 -385 0 -385 65 0 65 0 0 283 0 283 38 36 c65 64 134 82
197 52 68 -32 69 -37 75 -359 l5 -290 67 -3 66 -3 4 273 c3 300 5 308 68 361
86 73 215 28 239 -84 6 -28 11 -159 11 -299 l0 -250 71 0 71 0 -4 288 c-5 311
-9 337 -65 410 -93 123 -336 105 -418 -31 l-23 -39 -9 29 c-15 41 -62 94 -100
109 -46 20 -130 17 -179 -5z"/>
<path d="M1962 498 c3 -292 4 -305 25 -345 52 -96 136 -139 254 -131 74 6 131
30 189 81 l35 31 7 -44 c9 -52 19 -60 81 -60 l47 0 0 385 0 385 -70 0 -70 0 0
-284 0 -284 -31 -27 c-58 -48 -110 -69 -176 -69 -71 -1 -104 17 -134 74 -17
31 -19 61 -19 312 l0 278 -71 0 -70 0 3 -302z"/>
</g>
</svg>
